<?xml version="1.0" encoding="UTF-8"?>
<!--
  damson app icon — pixel-art plum character + agent sparkles.
  Generated by scripts/gen-icon.py. Do not edit directly; fix the script instead.
  build: python3 scripts/gen-icon.py && bash scripts/build-icon.sh
-->
<svg width="1024" height="1024" viewBox="0 0 1024 1024" xmlns="http://www.w3.org/2000/svg" shape-rendering="crispEdges">
  <rect width="1024" height="1024" rx="180" ry="180" fill="#1a1b26"/>
  <rect x="608" y="160" width="32" height="32" fill="#4f7a2c"/>
  <rect x="640" y="160" width="32" height="32" fill="#4f7a2c"/>
  <rect x="672" y="160" width="32" height="32" fill="#9ece6a"/>
  <rect x="576" y="192" width="32" height="32" fill="#9ece6a"/>
  <rect x="608" y="192" width="32" height="32" fill="#9ece6a"/>
  <rect x="640" y="192" width="32" height="32" fill="#9ece6a"/>
  <rect x="672" y="192" width="32" height="32" fill="#4f7a2c"/>
  <rect x="704" y="192" width="32" height="32" fill="#4f7a2c"/>
  <rect x="480" y="224" width="32" height="32" fill="#3b2766"/>
  <rect x="544" y="224" width="32" height="32" fill="#6b4a32"/>
  <rect x="640" y="224" width="32" height="32" fill="#9ece6a"/>
  <rect x="672" y="224" width="32" height="32" fill="#9ece6a"/>
  <rect x="704" y="224" width="32" height="32" fill="#4f7a2c"/>
  <rect x="352" y="256" width="32" height="32" fill="#3b2766"/>
  <rect x="384" y="256" width="32" height="32" fill="#3b2766"/>
  <rect x="416" y="256" width="32" height="32" fill="#3b2766"/>
  <rect x="448" y="256" width="32" height="32" fill="#3b2766"/>
  <rect x="480" y="256" width="32" height="32" fill="#3b2766"/>
  <rect x="512" y="256" width="32" height="32" fill="#6b4a32"/>
  <rect x="544" y="256" width="32" height="32" fill="#3b2766"/>
  <rect x="576" y="256" width="32" height="32" fill="#3b2766"/>
  <rect x="608" y="256" width="32" height="32" fill="#3b2766"/>
  <rect x="320" y="288" width="32" height="32" fill="#3b2766"/>
  <rect x="352" y="288" width="32" height="32" fill="#3b2766"/>
  <rect x="384" y="288" width="32" height="32" fill="#8a68cf"/>
  <rect x="416" y="288" width="32" height="32" fill="#8a68cf"/>
  <rect x="448" y="288" width="32" height="32" fill="#8a68cf"/>
  <rect x="480" y="288" width="32" height="32" fill="#8a68cf"/>
  <rect x="512" y="288" width="32" height="32" fill="#6b4caf"/>
  <rect x="544" y="288" width="32" height="32" fill="#ab88e6"/>
  <rect x="576" y="288" width="32" height="32" fill="#6b4caf"/>
  <rect x="608" y="288" width="32" height="32" fill="#3b2766"/>
  <rect x="640" y="288" width="32" height="32" fill="#3b2766"/>
  <rect x="288" y="320" width="32" height="32" fill="#3b2766"/>
  <rect x="320" y="320" width="32" height="32" fill="#ab88e6"/>
  <rect x="352" y="320" width="32" height="32" fill="#ab88e6"/>
  <rect x="384" y="320" width="32" height="32" fill="#ab88e6"/>
  <rect x="416" y="320" width="32" height="32" fill="#ab88e6"/>
  <rect x="448" y="320" width="32" height="32" fill="#ab88e6"/>
  <rect x="480" y="320" width="32" height="32" fill="#8a68cf"/>
  <rect x="512" y="320" width="32" height="32" fill="#6b4caf"/>
  <rect x="544" y="320" width="32" height="32" fill="#ab88e6"/>
  <rect x="576" y="320" width="32" height="32" fill="#8a68cf"/>
  <rect x="608" y="320" width="32" height="32" fill="#6b4caf"/>
  <rect x="640" y="320" width="32" height="32" fill="#6b4caf"/>
  <rect x="672" y="320" width="32" height="32" fill="#3b2766"/>
  <rect x="800" y="320" width="32" height="32" fill="#d3c2f4"/>
  <rect x="256" y="352" width="32" height="32" fill="#3b2766"/>
  <rect x="288" y="352" width="32" height="32" fill="#ab88e6"/>
  <rect x="320" y="352" width="32" height="32" fill="#ab88e6"/>
  <rect x="352" y="352" width="32" height="32" fill="#ab88e6"/>
  <rect x="384" y="352" width="32" height="32" fill="#ab88e6"/>
  <rect x="416" y="352" width="32" height="32" fill="#ab88e6"/>
  <rect x="448" y="352" width="32" height="32" fill="#ab88e6"/>
  <rect x="480" y="352" width="32" height="32" fill="#ab88e6"/>
  <rect x="512" y="352" width="32" height="32" fill="#6b4caf"/>
  <rect x="544" y="352" width="32" height="32" fill="#ab88e6"/>
  <rect x="576" y="352" width="32" height="32" fill="#8a68cf"/>
  <rect x="608" y="352" width="32" height="32" fill="#6b4caf"/>
  <rect x="640" y="352" width="32" height="32" fill="#6b4caf"/>
  <rect x="672" y="352" width="32" height="32" fill="#6b4caf"/>
  <rect x="704" y="352" width="32" height="32" fill="#3b2766"/>
  <rect x="800" y="352" width="32" height="32" fill="#ffffff"/>
  <rect x="224" y="384" width="32" height="32" fill="#3b2766"/>
  <rect x="256" y="384" width="32" height="32" fill="#ab88e6"/>
  <rect x="288" y="384" width="32" height="32" fill="#ab88e6"/>
  <rect x="320" y="384" width="32" height="32" fill="#ab88e6"/>
  <rect x="352" y="384" width="32" height="32" fill="#d3c2f4"/>
  <rect x="384" y="384" width="32" height="32" fill="#d3c2f4"/>
  <rect x="416" y="384" width="32" height="32" fill="#d3c2f4"/>
  <rect x="448" y="384" width="32" height="32" fill="#ab88e6"/>
  <rect x="480" y="384" width="32" height="32" fill="#ab88e6"/>
  <rect x="512" y="384" width="32" height="32" fill="#ab88e6"/>
  <rect x="544" y="384" width="32" height="32" fill="#6b4caf"/>
  <rect x="576" y="384" width="32" height="32" fill="#ab88e6"/>
  <rect x="608" y="384" width="32" height="32" fill="#8a68cf"/>
  <rect x="640" y="384" width="32" height="32" fill="#6b4caf"/>
  <rect x="672" y="384" width="32" height="32" fill="#6b4caf"/>
  <rect x="704" y="384" width="32" height="32" fill="#6b4caf"/>
  <rect x="736" y="384" width="32" height="32" fill="#d3c2f4"/>
  <rect x="768" y="384" width="32" height="32" fill="#ffffff"/>
  <rect x="800" y="384" width="32" height="32" fill="#ffffff"/>
  <rect x="832" y="384" width="32" height="32" fill="#ffffff"/>
  <rect x="864" y="384" width="32" height="32" fill="#d3c2f4"/>
  <rect x="192" y="416" width="32" height="32" fill="#3b2766"/>
  <rect x="224" y="416" width="32" height="32" fill="#3b2766"/>
  <rect x="256" y="416" width="32" height="32" fill="#ab88e6"/>
  <rect x="288" y="416" width="32" height="32" fill="#ab88e6"/>
  <rect x="320" y="416" width="32" height="32" fill="#d3c2f4"/>
  <rect x="352" y="416" width="32" height="32" fill="#d3c2f4"/>
  <rect x="384" y="416" width="32" height="32" fill="#d3c2f4"/>
  <rect x="416" y="416" width="32" height="32" fill="#d3c2f4"/>
  <rect x="448" y="416" width="32" height="32" fill="#d3c2f4"/>
  <rect x="480" y="416" width="32" height="32" fill="#ab88e6"/>
  <rect x="512" y="416" width="32" height="32" fill="#ab88e6"/>
  <rect x="544" y="416" width="32" height="32" fill="#6b4caf"/>
  <rect x="576" y="416" width="32" height="32" fill="#ab88e6"/>
  <rect x="608" y="416" width="32" height="32" fill="#8a68cf"/>
  <rect x="640" y="416" width="32" height="32" fill="#6b4caf"/>
  <rect x="672" y="416" width="32" height="32" fill="#6b4caf"/>
  <rect x="704" y="416" width="32" height="32" fill="#6b4caf"/>
  <rect x="736" y="416" width="32" height="32" fill="#3b2766"/>
  <rect x="768" y="416" width="32" height="32" fill="#3b2766"/>
  <rect x="800" y="416" width="32" height="32" fill="#ffffff"/>
  <rect x="192" y="448" width="32" height="32" fill="#3b2766"/>
  <rect x="224" y="448" width="32" height="32" fill="#8a68cf"/>
  <rect x="256" y="448" width="32" height="32" fill="#ab88e6"/>
  <rect x="288" y="448" width="32" height="32" fill="#ab88e6"/>
  <rect x="320" y="448" width="32" height="32" fill="#d3c2f4"/>
  <rect x="352" y="448" width="32" height="32" fill="#d3c2f4"/>
  <rect x="384" y="448" width="32" height="32" fill="#d3c2f4"/>
  <rect x="416" y="448" width="32" height="32" fill="#d3c2f4"/>
  <rect x="448" y="448" width="32" height="32" fill="#d3c2f4"/>
  <rect x="480" y="448" width="32" height="32" fill="#ab88e6"/>
  <rect x="512" y="448" width="32" height="32" fill="#ab88e6"/>
  <rect x="544" y="448" width="32" height="32" fill="#6b4caf"/>
  <rect x="576" y="448" width="32" height="32" fill="#ab88e6"/>
  <rect x="608" y="448" width="32" height="32" fill="#8a68cf"/>
  <rect x="640" y="448" width="32" height="32" fill="#6b4caf"/>
  <rect x="672" y="448" width="32" height="32" fill="#6b4caf"/>
  <rect x="704" y="448" width="32" height="32" fill="#6b4caf"/>
  <rect x="736" y="448" width="32" height="32" fill="#6b4caf"/>
  <rect x="768" y="448" width="32" height="32" fill="#3b2766"/>
  <rect x="800" y="448" width="32" height="32" fill="#d3c2f4"/>
  <rect x="192" y="480" width="32" height="32" fill="#3b2766"/>
  <rect x="224" y="480" width="32" height="32" fill="#8a68cf"/>
  <rect x="256" y="480" width="32" height="32" fill="#ab88e6"/>
  <rect x="288" y="480" width="32" height="32" fill="#ab88e6"/>
  <rect x="320" y="480" width="32" height="32" fill="#ab88e6"/>
  <rect x="352" y="480" width="32" height="32" fill="#d3c2f4"/>
  <rect x="384" y="480" width="32" height="32" fill="#d3c2f4"/>
  <rect x="416" y="480" width="32" height="32" fill="#d3c2f4"/>
  <rect x="448" y="480" width="32" height="32" fill="#ab88e6"/>
  <rect x="480" y="480" width="32" height="32" fill="#ab88e6"/>
  <rect x="512" y="480" width="32" height="32" fill="#ab88e6"/>
  <rect x="544" y="480" width="32" height="32" fill="#6b4caf"/>
  <rect x="576" y="480" width="32" height="32" fill="#ab88e6"/>
  <rect x="608" y="480" width="32" height="32" fill="#8a68cf"/>
  <rect x="640" y="480" width="32" height="32" fill="#6b4caf"/>
  <rect x="672" y="480" width="32" height="32" fill="#6b4caf"/>
  <rect x="704" y="480" width="32" height="32" fill="#6b4caf"/>
  <rect x="736" y="480" width="32" height="32" fill="#6b4caf"/>
  <rect x="768" y="480" width="32" height="32" fill="#3b2766"/>
  <rect x="192" y="512" width="32" height="32" fill="#3b2766"/>
  <rect x="224" y="512" width="32" height="32" fill="#8a68cf"/>
  <rect x="256" y="512" width="32" height="32" fill="#8a68cf"/>
  <rect x="288" y="512" width="32" height="32" fill="#ab88e6"/>
  <rect x="320" y="512" width="32" height="32" fill="#ab88e6"/>
  <rect x="352" y="512" width="32" height="32" fill="#ab88e6"/>
  <rect x="384" y="512" width="32" height="32" fill="#ab88e6"/>
  <rect x="416" y="512" width="32" height="32" fill="#ab88e6"/>
  <rect x="448" y="512" width="32" height="32" fill="#ab88e6"/>
  <rect x="480" y="512" width="32" height="32" fill="#ab88e6"/>
  <rect x="512" y="512" width="32" height="32" fill="#8a68cf"/>
  <rect x="544" y="512" width="32" height="32" fill="#6b4caf"/>
  <rect x="576" y="512" width="32" height="32" fill="#ab88e6"/>
  <rect x="608" y="512" width="32" height="32" fill="#6b4caf"/>
  <rect x="640" y="512" width="32" height="32" fill="#6b4caf"/>
  <rect x="672" y="512" width="32" height="32" fill="#6b4caf"/>
  <rect x="704" y="512" width="32" height="32" fill="#6b4caf"/>
  <rect x="736" y="512" width="32" height="32" fill="#6b4caf"/>
  <rect x="768" y="512" width="32" height="32" fill="#3b2766"/>
  <rect x="192" y="544" width="32" height="32" fill="#3b2766"/>
  <rect x="224" y="544" width="32" height="32" fill="#8a68cf"/>
  <rect x="256" y="544" width="32" height="32" fill="#8a68cf"/>
  <rect x="288" y="544" width="32" height="32" fill="#8a68cf"/>
  <rect x="320" y="544" width="32" height="32" fill="#ab88e6"/>
  <rect x="352" y="544" width="32" height="32" fill="#ab88e6"/>
  <rect x="384" y="544" width="32" height="32" fill="#ab88e6"/>
  <rect x="416" y="544" width="32" height="32" fill="#ab88e6"/>
  <rect x="448" y="544" width="32" height="32" fill="#ab88e6"/>
  <rect x="480" y="544" width="32" height="32" fill="#8a68cf"/>
  <rect x="512" y="544" width="32" height="32" fill="#8a68cf"/>
  <rect x="544" y="544" width="32" height="32" fill="#6b4caf"/>
  <rect x="576" y="544" width="32" height="32" fill="#ab88e6"/>
  <rect x="608" y="544" width="32" height="32" fill="#6b4caf"/>
  <rect x="640" y="544" width="32" height="32" fill="#6b4caf"/>
  <rect x="672" y="544" width="32" height="32" fill="#6b4caf"/>
  <rect x="704" y="544" width="32" height="32" fill="#6b4caf"/>
  <rect x="736" y="544" width="32" height="32" fill="#6b4caf"/>
  <rect x="768" y="544" width="32" height="32" fill="#3b2766"/>
  <rect x="192" y="576" width="32" height="32" fill="#3b2766"/>
  <rect x="224" y="576" width="32" height="32" fill="#8a68cf"/>
  <rect x="256" y="576" width="32" height="32" fill="#8a68cf"/>
  <rect x="288" y="576" width="32" height="32" fill="#8a68cf"/>
  <rect x="320" y="576" width="32" height="32" fill="#8a68cf"/>
  <rect x="352" y="576" width="32" height="32" fill="#ffffff"/>
  <rect x="384" y="576" width="32" height="32" fill="#241f33"/>
  <rect x="416" y="576" width="32" height="32" fill="#8a68cf"/>
  <rect x="448" y="576" width="32" height="32" fill="#8a68cf"/>
  <rect x="480" y="576" width="32" height="32" fill="#8a68cf"/>
  <rect x="512" y="576" width="32" height="32" fill="#8a68cf"/>
  <rect x="544" y="576" width="32" height="32" fill="#6b4caf"/>
  <rect x="576" y="576" width="32" height="32" fill="#ab88e6"/>
  <rect x="608" y="576" width="32" height="32" fill="#6b4caf"/>
  <rect x="640" y="576" width="32" height="32" fill="#241f33"/>
  <rect x="672" y="576" width="32" height="32" fill="#241f33"/>
  <rect x="704" y="576" width="32" height="32" fill="#6b4caf"/>
  <rect x="736" y="576" width="32" height="32" fill="#6b4caf"/>
  <rect x="768" y="576" width="32" height="32" fill="#3b2766"/>
  <rect x="192" y="608" width="32" height="32" fill="#3b2766"/>
  <rect x="224" y="608" width="32" height="32" fill="#6b4caf"/>
  <rect x="256" y="608" width="32" height="32" fill="#8a68cf"/>
  <rect x="288" y="608" width="32" height="32" fill="#8a68cf"/>
  <rect x="320" y="608" width="32" height="32" fill="#8a68cf"/>
  <rect x="352" y="608" width="32" height="32" fill="#241f33"/>
  <rect x="384" y="608" width="32" height="32" fill="#241f33"/>
  <rect x="416" y="608" width="32" height="32" fill="#8a68cf"/>
  <rect x="448" y="608" width="32" height="32" fill="#8a68cf"/>
  <rect x="480" y="608" width="32" height="32" fill="#8a68cf"/>
  <rect x="512" y="608" width="32" height="32" fill="#8a68cf"/>
  <rect x="544" y="608" width="32" height="32" fill="#6b4caf"/>
  <rect x="576" y="608" width="32" height="32" fill="#ab88e6"/>
  <rect x="608" y="608" width="32" height="32" fill="#241f33"/>
  <rect x="640" y="608" width="32" height="32" fill="#6b4caf"/>
  <rect x="672" y="608" width="32" height="32" fill="#6b4caf"/>
  <rect x="704" y="608" width="32" height="32" fill="#241f33"/>
  <rect x="736" y="608" width="32" height="32" fill="#6b4caf"/>
  <rect x="768" y="608" width="32" height="32" fill="#3b2766"/>
  <rect x="192" y="640" width="32" height="32" fill="#3b2766"/>
  <rect x="224" y="640" width="32" height="32" fill="#6b4caf"/>
  <rect x="256" y="640" width="32" height="32" fill="#6b4caf"/>
  <rect x="288" y="640" width="32" height="32" fill="#8a68cf"/>
  <rect x="320" y="640" width="32" height="32" fill="#8a68cf"/>
  <rect x="352" y="640" width="32" height="32" fill="#8a68cf"/>
  <rect x="384" y="640" width="32" height="32" fill="#8a68cf"/>
  <rect x="416" y="640" width="32" height="32" fill="#8a68cf"/>
  <rect x="448" y="640" width="32" height="32" fill="#8a68cf"/>
  <rect x="480" y="640" width="32" height="32" fill="#8a68cf"/>
  <rect x="512" y="640" width="32" height="32" fill="#6b4caf"/>
  <rect x="544" y="640" width="32" height="32" fill="#6b4caf"/>
  <rect x="576" y="640" width="32" height="32" fill="#ab88e6"/>
  <rect x="608" y="640" width="32" height="32" fill="#6b4caf"/>
  <rect x="640" y="640" width="32" height="32" fill="#6b4caf"/>
  <rect x="672" y="640" width="32" height="32" fill="#6b4caf"/>
  <rect x="704" y="640" width="32" height="32" fill="#6b4caf"/>
  <rect x="736" y="640" width="32" height="32" fill="#6b4caf"/>
  <rect x="768" y="640" width="32" height="32" fill="#3b2766"/>
  <rect x="192" y="672" width="32" height="32" fill="#3b2766"/>
  <rect x="224" y="672" width="32" height="32" fill="#6b4caf"/>
  <rect x="256" y="672" width="32" height="32" fill="#6b4caf"/>
  <rect x="288" y="672" width="32" height="32" fill="#6b4caf"/>
  <rect x="320" y="672" width="32" height="32" fill="#f7768e"/>
  <rect x="352" y="672" width="32" height="32" fill="#6b4caf"/>
  <rect x="384" y="672" width="32" height="32" fill="#6b4caf"/>
  <rect x="416" y="672" width="32" height="32" fill="#6b4caf"/>
  <rect x="448" y="672" width="32" height="32" fill="#6b4caf"/>
  <rect x="480" y="672" width="32" height="32" fill="#6b4caf"/>
  <rect x="512" y="672" width="32" height="32" fill="#6b4caf"/>
  <rect x="544" y="672" width="32" height="32" fill="#6b4caf"/>
  <rect x="576" y="672" width="32" height="32" fill="#ab88e6"/>
  <rect x="608" y="672" width="32" height="32" fill="#6b4caf"/>
  <rect x="640" y="672" width="32" height="32" fill="#f7768e"/>
  <rect x="672" y="672" width="32" height="32" fill="#f7768e"/>
  <rect x="704" y="672" width="32" height="32" fill="#6b4caf"/>
  <rect x="736" y="672" width="32" height="32" fill="#6b4caf"/>
  <rect x="768" y="672" width="32" height="32" fill="#3b2766"/>
  <rect x="192" y="704" width="32" height="32" fill="#3b2766"/>
  <rect x="224" y="704" width="32" height="32" fill="#3b2766"/>
  <rect x="256" y="704" width="32" height="32" fill="#6b4caf"/>
  <rect x="288" y="704" width="32" height="32" fill="#6b4caf"/>
  <rect x="320" y="704" width="32" height="32" fill="#6b4caf"/>
  <rect x="352" y="704" width="32" height="32" fill="#6b4caf"/>
  <rect x="384" y="704" width="32" height="32" fill="#6b4caf"/>
  <rect x="416" y="704" width="32" height="32" fill="#241f33"/>
  <rect x="448" y="704" width="32" height="32" fill="#6b4caf"/>
  <rect x="480" y="704" width="32" height="32" fill="#6b4caf"/>
  <rect x="512" y="704" width="32" height="32" fill="#6b4caf"/>
  <rect x="544" y="704" width="32" height="32" fill="#6b4caf"/>
  <rect x="576" y="704" width="32" height="32" fill="#241f33"/>
  <rect x="608" y="704" width="32" height="32" fill="#6b4caf"/>
  <rect x="640" y="704" width="32" height="32" fill="#6b4caf"/>
  <rect x="672" y="704" width="32" height="32" fill="#6b4caf"/>
  <rect x="704" y="704" width="32" height="32" fill="#6b4caf"/>
  <rect x="736" y="704" width="32" height="32" fill="#3b2766"/>
  <rect x="768" y="704" width="32" height="32" fill="#3b2766"/>
  <rect x="224" y="736" width="32" height="32" fill="#3b2766"/>
  <rect x="256" y="736" width="32" height="32" fill="#6b4caf"/>
  <rect x="288" y="736" width="32" height="32" fill="#6b4caf"/>
  <rect x="320" y="736" width="32" height="32" fill="#6b4caf"/>
  <rect x="352" y="736" width="32" height="32" fill="#6b4caf"/>
  <rect x="384" y="736" width="32" height="32" fill="#6b4caf"/>
  <rect x="416" y="736" width="32" height="32" fill="#6b4caf"/>
  <rect x="448" y="736" width="32" height="32" fill="#241f33"/>
  <rect x="480" y="736" width="32" height="32" fill="#241f33"/>
  <rect x="512" y="736" width="32" height="32" fill="#241f33"/>
  <rect x="544" y="736" width="32" height="32" fill="#241f33"/>
  <rect x="576" y="736" width="32" height="32" fill="#ab88e6"/>
  <rect x="608" y="736" width="32" height="32" fill="#6b4caf"/>
  <rect x="640" y="736" width="32" height="32" fill="#6b4caf"/>
  <rect x="672" y="736" width="32" height="32" fill="#6b4caf"/>
  <rect x="704" y="736" width="32" height="32" fill="#6b4caf"/>
  <rect x="736" y="736" width="32" height="32" fill="#3b2766"/>
  <rect x="224" y="768" width="32" height="32" fill="#ffffff"/>
  <rect x="256" y="768" width="32" height="32" fill="#3b2766"/>
  <rect x="288" y="768" width="32" height="32" fill="#6b4caf"/>
  <rect x="320" y="768" width="32" height="32" fill="#6b4caf"/>
  <rect x="352" y="768" width="32" height="32" fill="#6b4caf"/>
  <rect x="384" y="768" width="32" height="32" fill="#6b4caf"/>
  <rect x="416" y="768" width="32" height="32" fill="#6b4caf"/>
  <rect x="448" y="768" width="32" height="32" fill="#6b4caf"/>
  <rect x="480" y="768" width="32" height="32" fill="#6b4caf"/>
  <rect x="512" y="768" width="32" height="32" fill="#6b4caf"/>
  <rect x="544" y="768" width="32" height="32" fill="#6b4caf"/>
  <rect x="576" y="768" width="32" height="32" fill="#ab88e6"/>
  <rect x="608" y="768" width="32" height="32" fill="#6b4caf"/>
  <rect x="640" y="768" width="32" height="32" fill="#6b4caf"/>
  <rect x="672" y="768" width="32" height="32" fill="#6b4caf"/>
  <rect x="704" y="768" width="32" height="32" fill="#3b2766"/>
  <rect x="192" y="800" width="32" height="32" fill="#ffffff"/>
  <rect x="224" y="800" width="32" height="32" fill="#ffffff"/>
  <rect x="256" y="800" width="32" height="32" fill="#ffffff"/>
  <rect x="288" y="800" width="32" height="32" fill="#3b2766"/>
  <rect x="320" y="800" width="32" height="32" fill="#6b4caf"/>
  <rect x="352" y="800" width="32" height="32" fill="#6b4caf"/>
  <rect x="384" y="800" width="32" height="32" fill="#6b4caf"/>
  <rect x="416" y="800" width="32" height="32" fill="#6b4caf"/>
  <rect x="448" y="800" width="32" height="32" fill="#6b4caf"/>
  <rect x="480" y="800" width="32" height="32" fill="#6b4caf"/>
  <rect x="512" y="800" width="32" height="32" fill="#6b4caf"/>
  <rect x="544" y="800" width="32" height="32" fill="#6b4caf"/>
  <rect x="576" y="800" width="32" height="32" fill="#ab88e6"/>
  <rect x="608" y="800" width="32" height="32" fill="#6b4caf"/>
  <rect x="640" y="800" width="32" height="32" fill="#6b4caf"/>
  <rect x="672" y="800" width="32" height="32" fill="#3b2766"/>
  <rect x="224" y="832" width="32" height="32" fill="#ffffff"/>
  <rect x="320" y="832" width="32" height="32" fill="#3b2766"/>
  <rect x="352" y="832" width="32" height="32" fill="#3b2766"/>
  <rect x="384" y="832" width="32" height="32" fill="#6b4caf"/>
  <rect x="416" y="832" width="32" height="32" fill="#6b4caf"/>
  <rect x="448" y="832" width="32" height="32" fill="#6b4caf"/>
  <rect x="480" y="832" width="32" height="32" fill="#6b4caf"/>
  <rect x="512" y="832" width="32" height="32" fill="#6b4caf"/>
  <rect x="544" y="832" width="32" height="32" fill="#ab88e6"/>
  <rect x="576" y="832" width="32" height="32" fill="#6b4caf"/>
  <rect x="608" y="832" width="32" height="32" fill="#3b2766"/>
  <rect x="640" y="832" width="32" height="32" fill="#3b2766"/>
  <rect x="352" y="864" width="32" height="32" fill="#3b2766"/>
  <rect x="384" y="864" width="32" height="32" fill="#3b2766"/>
  <rect x="416" y="864" width="32" height="32" fill="#3b2766"/>
  <rect x="448" y="864" width="32" height="32" fill="#3b2766"/>
  <rect x="480" y="864" width="32" height="32" fill="#3b2766"/>
  <rect x="512" y="864" width="32" height="32" fill="#3b2766"/>
  <rect x="544" y="864" width="32" height="32" fill="#3b2766"/>
  <rect x="576" y="864" width="32" height="32" fill="#3b2766"/>
  <rect x="608" y="864" width="32" height="32" fill="#3b2766"/>
  <rect x="480" y="896" width="32" height="32" fill="#3b2766"/>
</svg>
